AkatabNeo-Regular.ufo
<glyph name="six" format="2">
  <advance width="1042"/>
  <unicode hex="0036"/>
  <outline>
    <contour>
      <point x="563" y="-25" type="curve" smooth="yes"/>
      <point x="776" y="-25"/>
      <point x="958" y="149"/>
      <point x="958" y="405" type="curve" smooth="yes"/>
      <point x="958" y="681"/>
      <point x="808" y="821"/>
      <point x="574" y="821" type="curve" smooth="yes"/>
      <point x="458" y="821"/>
      <point x="331" y="749"/>
      <point x="246" y="635" type="curve"/>
      <point x="253" y="504" type="line"/>
      <point x="348" y="645"/>
      <point x="460" y="698"/>
      <point x="548" y="698" type="curve" smooth="yes"/>
      <point x="719" y="698"/>
      <point x="804" y="582"/>
      <point x="804" y="405" type="curve" smooth="yes"/>
      <point x="804" y="225"/>
      <point x="698" y="103"/>
      <point x="563" y="103" type="curve" smooth="yes"/>
      <point x="363" y="103"/>
      <point x="255" y="289"/>
      <point x="255" y="620" type="curve" smooth="yes"/>
      <point x="255" y="1080"/>
      <point x="422" y="1237"/>
      <point x="618" y="1237" type="curve" smooth="yes"/>
      <point x="702" y="1237"/>
      <point x="785" y="1196"/>
      <point x="840" y="1129" type="curve"/>
      <point x="933" y="1230" type="line"/>
      <point x="857" y="1310"/>
      <point x="755" y="1372"/>
      <point x="612" y="1372" type="curve" smooth="yes"/>
      <point x="346" y="1372"/>
      <point x="103" y="1165"/>
      <point x="103" y="620" type="curve" smooth="yes"/>
      <point x="103" y="192"/>
      <point x="297" y="-25"/>
    </contour>
  </outline>
</glyph>
<glyph name="seven" format="2">
  <advance width="1042"/>
  <unicode hex="0037"/>
  <outline>
    <contour>
      <point x="365" y="0" type="curve"/>
      <point x="531" y="0" type="line"/>
      <point x="555" y="525"/>
      <point x="629" y="835"/>
      <point x="954" y="1247" type="curve"/>
      <point x="954" y="1346" type="line"/>
      <point x="92" y="1346" type="line"/>
      <point x="92" y="1207" type="line"/>
      <point x="772" y="1207" type="line"/>
      <point x="498" y="833"/>
      <point x="388" y="512"/>
    </contour>
  </outline>
</glyph>
<glyph name="eight" format="2">
  <advance width="1042"/>
  <unicode hex="0038"/>
  <outline>
    <contour>
      <point x="525" y="-25" type="curve" smooth="yes"/>
      <point x="785" y="-25"/>
      <point x="956" y="132"/>
      <point x="956" y="333" type="curve" smooth="yes"/>
      <point x="956" y="512"/>
      <point x="842" y="607"/>
      <point x="721" y="679" type="curve"/>
      <point x="721" y="688" type="line"/>
      <point x="804" y="749"/>
      <point x="907" y="871"/>
      <point x="907" y="1015" type="curve" smooth="yes"/>
      <point x="907" y="1222"/>
      <point x="764" y="1372"/>
      <point x="529" y="1372" type="curve" smooth="yes"/>
      <point x="316" y="1372"/>
      <point x="154" y="1234"/>
      <point x="154" y="1028" type="curve" smooth="yes"/>
      <point x="154" y="886"/>
      <point x="242" y="787"/>
      <point x="341" y="717" type="curve"/>
      <point x="341" y="709" type="line"/>
      <point x="215" y="641"/>
      <point x="86" y="521"/>
      <point x="86" y="344" type="curve" smooth="yes"/>
      <point x="86" y="130"/>
      <point x="272" y="-25"/>
    </contour>
    <contour>
      <point x="620" y="730" type="curve"/>
      <point x="455" y="795"/>
      <point x="301" y="863"/>
      <point x="301" y="1028" type="curve" smooth="yes"/>
      <point x="301" y="1161"/>
      <point x="396" y="1251"/>
      <point x="527" y="1251" type="curve" smooth="yes"/>
      <point x="679" y="1251"/>
      <point x="768" y="1142"/>
      <point x="768" y="1006" type="curve" smooth="yes"/>
      <point x="768" y="905"/>
      <point x="715" y="812"/>
    </contour>
    <contour>
      <point x="529" y="94" type="curve" smooth="yes"/>
      <point x="358" y="94"/>
      <point x="232" y="206"/>
      <point x="232" y="358" type="curve" smooth="yes"/>
      <point x="232" y="485"/>
      <point x="316" y="586"/>
      <point x="428" y="658" type="curve"/>
      <point x="624" y="580"/>
      <point x="800" y="517"/>
      <point x="800" y="337" type="curve" smooth="yes"/>
      <point x="800" y="196"/>
      <point x="690" y="94"/>
    </contour>
  </outline>
</glyph>
<glyph name="greater" format="2">
  <advance width="1042"/>
  <unicode hex="003E"/>
  <outline>
    <contour>
      <point x="71" y="280" type="line"/>
      <point x="971" y="635" type="line"/>
      <point x="971" y="766" type="line"/>
      <point x="71" y="1120" type="line"/>
      <point x="71" y="979" type="line"/>
      <point x="523" y="810" type="line"/>
      <point x="806" y="705" type="line"/>
      <point x="806" y="696" type="line"/>
      <point x="523" y="591" type="line"/>
      <point x="71" y="422" type="line"/>
    </contour>
  </outline>
</glyph>
<glyph name="E" format="2">
  <advance width="1108"/>
  <unicode hex="0045"/>
  <anchor x="612" y="1433" name="aboveUC"/>
  <anchor x="633" y="-46" name="belowLC"/>
  <anchor x="854" y="0" name="ogonekUC"/>
  <outline>
    <contour>
      <point x="192" y="0" type="line"/>
      <point x="1006" y="0" type="line"/>
      <point x="1006" y="139" type="line"/>
      <point x="356" y="139" type="line"/>
      <point x="356" y="658" type="line"/>
      <point x="886" y="658" type="line"/>
      <point x="886" y="800" type="line"/>
      <point x="356" y="800" type="line"/>
      <point x="356" y="1247" type="line"/>
      <point x="985" y="1247" type="line"/>
      <point x="985" y="1386" type="line"/>
      <point x="192" y="1386" type="line"/>
    </contour>
  </outline>
</glyph>
<glyph name="G" format="2">
  <advance width="1298"/>
  <unicode hex="0047"/>
  <anchor x="738" y="1433" name="aboveUC"/>
  <anchor x="738" y="-46" name="belowLC"/>
  <outline>
    <contour>
      <point x="732" y="-25" type="curve" smooth="yes"/>
      <point x="916" y="-25"/>
      <point x="1068" y="42"/>
      <point x="1156" y="135" type="curve"/>
      <point x="1156" y="713" type="line"/>
      <point x="705" y="713" type="line"/>
      <point x="705" y="576" type="line"/>
      <point x="1004" y="576" type="line"/>
      <point x="1004" y="204" type="line"/>
      <point x="947" y="149"/>
      <point x="848" y="120"/>
      <point x="747" y="120" type="curve" smooth="yes"/>
      <point x="447" y="120"/>
      <point x="280" y="341"/>
      <point x="280" y="696" type="curve" smooth="yes"/>
      <point x="280" y="1047"/>
      <point x="462" y="1266"/>
      <point x="747" y="1266" type="curve" smooth="yes"/>
      <point x="886" y="1266"/>
      <point x="979" y="1211"/>
      <point x="1049" y="1137" type="curve"/>
      <point x="1139" y="1241" type="line"/>
      <point x="1059" y="1325"/>
      <point x="935" y="1412"/>
      <point x="743" y="1412" type="curve" smooth="yes"/>
      <point x="375" y="1412"/>
      <point x="109" y="1137"/>
      <point x="109" y="692" type="curve" smooth="yes"/>
      <point x="109" y="242"/>
      <point x="367" y="-25"/>
    </contour>
  </outline>
</glyph>
<glyph name="I" format="2">
  <advance width="548"/>
  <unicode hex="0049"/>
  <anchor x="274" y="1433" name="aboveUC"/>
  <anchor x="274" y="-46" name="belowLC"/>
  <anchor x="265" y="0" name="ogonekUC"/>
  <outline>
    <contour>
      <point x="192" y="0" type="line"/>
      <point x="356" y="0" type="line"/>
      <point x="356" y="1386" type="line"/>
      <point x="192" y="1386" type="line"/>
    </contour>
  </outline>
</glyph>
<glyph name="c" format="2">
  <advance width="960"/>
  <unicode hex="0063"/>
  <anchor x="576" y="1074" name="aboveLC"/>
  <anchor x="563" y="0" name="baseLC"/>
  <anchor x="563" y="-46" name="belowLC"/>
  <outline>
    <contour>
      <point x="576" y="-25" type="curve" smooth="yes"/>
      <point x="700" y="-25"/>
      <point x="816" y="21"/>
      <point x="907" y="105" type="curve"/>
      <point x="835" y="208" type="line"/>
      <point x="772" y="151"/>
      <point x="688" y="109"/>
      <point x="591" y="109" type="curve" smooth="yes"/>
      <point x="396" y="109"/>
      <point x="265" y="270"/>
      <point x="265" y="510" type="curve" smooth="yes"/>
      <point x="265" y="751"/>
      <point x="405" y="914"/>
      <point x="595" y="914" type="curve" smooth="yes"/>
      <point x="679" y="914"/>
      <point x="749" y="880"/>
      <point x="806" y="827" type="curve"/>
      <point x="888" y="928" type="line"/>
      <point x="816" y="996"/>
      <point x="724" y="1049"/>
      <point x="588" y="1049" type="curve" smooth="yes"/>
      <point x="327" y="1049"/>
      <point x="99" y="852"/>
      <point x="99" y="510" type="curve" smooth="yes"/>
      <point x="99" y="170"/>
      <point x="306" y="-25"/>
    </contour>
  </outline>
</glyph>
<glyph name="g" format="2">
  <advance width="1059"/>
  <unicode hex="0067"/>
  <anchor x="542" y="1074" name="aboveLC"/>
  <anchor x="527" y="-462" name="belowLC"/>
  <outline>
    <contour>
      <point x="521" y="-474" type="curve" smooth="yes"/>
      <point x="833" y="-474"/>
      <point x="1034" y="-310"/>
      <point x="1034" y="-122" type="curve" smooth="yes"/>
      <point x="1034" y="46"/>
      <point x="916" y="122"/>
      <point x="679" y="122" type="curve" smooth="yes"/>
      <point x="477" y="122" type="line" smooth="yes"/>
      <point x="337" y="122"/>
      <point x="295" y="168"/>
      <point x="295" y="236" type="curve" smooth="yes"/>
      <point x="295" y="293"/>
      <point x="325" y="329"/>
      <point x="363" y="360" type="curve"/>
      <point x="409" y="337"/>
      <point x="466" y="325"/>
      <point x="517" y="325" type="curve" smooth="yes"/>
      <point x="726" y="325"/>
      <point x="890" y="462"/>
      <point x="890" y="681" type="curve" smooth="yes"/>
      <point x="890" y="770"/>
      <point x="852" y="850"/>
      <point x="802" y="899" type="curve"/>
      <point x="1017" y="899" type="line"/>
      <point x="1017" y="1023" type="line"/>
      <point x="660" y="1023" type="line"/>
      <point x="624" y="1038"/>
      <point x="574" y="1049"/>
      <point x="517" y="1049" type="curve" smooth="yes"/>
      <point x="310" y="1049"/>
      <point x="137" y="907"/>
      <point x="137" y="683" type="curve" smooth="yes"/>
      <point x="137" y="561"/>
      <point x="200" y="462"/>
      <point x="268" y="409" type="curve"/>
      <point x="268" y="401" type="line"/>
      <point x="217" y="365"/>
      <point x="156" y="297"/>
      <point x="156" y="211" type="curve" smooth="yes"/>
      <point x="156" y="130"/>
      <point x="196" y="75"/>
      <point x="246" y="44" type="curve"/>
      <point x="246" y="35" type="line"/>
      <point x="154" y="-27"/>
      <point x="97" y="-109"/>
      <point x="97" y="-198" type="curve" smooth="yes"/>
      <point x="97" y="-375"/>
      <point x="268" y="-474"/>
    </contour>
    <contour>
      <point x="517" y="434" type="curve" smooth="yes"/>
      <point x="396" y="434"/>
      <point x="293" y="531"/>
      <point x="293" y="683" type="curve" smooth="yes"/>
      <point x="293" y="838"/>
      <point x="392" y="930"/>
      <point x="517" y="930" type="curve" smooth="yes"/>
      <point x="641" y="930"/>
      <point x="743" y="838"/>
      <point x="743" y="683" type="curve" smooth="yes"/>
      <point x="743" y="531"/>
      <point x="639" y="434"/>
    </contour>
    <contour>
      <point x="542" y="-360" type="curve" smooth="yes"/>
      <point x="352" y="-360"/>
      <point x="240" y="-289"/>
      <point x="240" y="-177" type="curve" smooth="yes"/>
      <point x="240" y="-116"/>
      <point x="272" y="-50"/>
      <point x="348" y="2" type="curve"/>
      <point x="394" y="-10"/>
      <point x="443" y="-14"/>
      <point x="481" y="-14" type="curve" smooth="yes"/>
      <point x="664" y="-14" type="line" smooth="yes"/>
      <point x="802" y="-14"/>
      <point x="873" y="-46"/>
      <point x="873" y="-145" type="curve" smooth="yes"/>
      <point x="873" y="-255"/>
      <point x="743" y="-360"/>
    </contour>
  </outline>
</glyph>
<glyph name="n" format="2">
  <advance width="1148"/>
  <unicode hex="006E"/>
  <anchor x="618" y="1074" name="aboveLC"/>
  <anchor x="584" y="-46" name="belowLC"/>
  <outline>
    <contour>
      <point x="175" y="0" type="line"/>
      <point x="337" y="0" type="line"/>
      <point x="337" y="745" type="line"/>
      <point x="443" y="852"/>
      <point x="519" y="909"/>
      <point x="624" y="909" type="curve" smooth="yes"/>
      <point x="766" y="909"/>
      <point x="825" y="823"/>
      <point x="825" y="629" type="curve" smooth="yes"/>
      <point x="825" y="0" type="line"/>
      <point x="985" y="0" type="line"/>
      <point x="985" y="650" type="line" smooth="yes"/>
      <point x="985" y="911"/>
      <point x="888" y="1049"/>
      <point x="675" y="1049" type="curve" smooth="yes"/>
      <point x="534" y="1049"/>
      <point x="428" y="973"/>
      <point x="329" y="876" type="curve"/>
      <point x="325" y="876" type="line"/>
      <point x="310" y="1023" type="line"/>
      <point x="175" y="1023" type="line"/>
    </contour>
  </outline>
</glyph>
<glyph name="z" format="2">
  <advance width="890"/>
  <unicode hex="007A"/>
  <anchor x="485" y="1074" name="aboveLC"/>
  <anchor x="470" y="-46" name="belowLC"/>
  <outline>
    <contour>
      <point x="63" y="0" type="line"/>
      <point x="835" y="0" type="line"/>
      <point x="835" y="132" type="line"/>
      <point x="270" y="132" type="line"/>
      <point x="819" y="937" type="line"/>
      <point x="819" y="1023" type="line"/>
      <point x="124" y="1023" type="line"/>
      <point x="124" y="890" type="line"/>
      <point x="614" y="890" type="line"/>
      <point x="63" y="86" type="line"/>
    </contour>
  </outline>
</glyph>
<glyph name="braceright" format="2">
  <advance width="631"/>
  <unicode hex="007D"/>
  <outline>
    <contour>
      <point x="61" y="-320" type="line"/>
      <point x="151" y="-320" type="line" smooth="yes"/>
      <point x="318" y="-320"/>
      <point x="396" y="-259"/>
      <point x="396" y="-40" type="curve" smooth="yes"/>
      <point x="396" y="111"/>
      <point x="377" y="225"/>
      <point x="377" y="369" type="curve" smooth="yes"/>
      <point x="377" y="451"/>
      <point x="415" y="534"/>
      <point x="559" y="534" type="curve"/>
      <point x="559" y="639" type="line"/>
      <point x="415" y="639"/>
      <point x="377" y="721"/>
      <point x="377" y="802" type="curve" smooth="yes"/>
      <point x="377" y="947"/>
      <point x="396" y="1061"/>
      <point x="396" y="1213" type="curve" smooth="yes"/>
      <point x="396" y="1433"/>
      <point x="318" y="1494"/>
      <point x="151" y="1494" type="curve" smooth="yes"/>
      <point x="61" y="1494" type="line"/>
      <point x="61" y="1401" type="line"/>
      <point x="118" y="1401" type="line" smooth="yes"/>
      <point x="234" y="1401"/>
      <point x="265" y="1342"/>
      <point x="265" y="1205" type="curve" smooth="yes"/>
      <point x="265" y="1076"/>
      <point x="253" y="964"/>
      <point x="253" y="819" type="curve" smooth="yes"/>
      <point x="253" y="683"/>
      <point x="287" y="616"/>
      <point x="377" y="591" type="curve"/>
      <point x="377" y="582" type="line"/>
      <point x="287" y="557"/>
      <point x="253" y="485"/>
      <point x="253" y="354" type="curve" smooth="yes"/>
      <point x="253" y="208"/>
      <point x="265" y="97"/>
      <point x="265" y="-31" type="curve" smooth="yes"/>
      <point x="265" y="-168"/>
      <point x="234" y="-227"/>
      <point x="118" y="-227" type="curve" smooth="yes"/>
      <point x="61" y="-227" type="line"/>
    </contour>
  </outline>
</glyph>
<glyph name="brokenbar" format="2">
  <advance width="504"/>
  <unicode hex="00A6"/>
  <outline>
    <contour>
      <point x="194" y="610" type="line"/>
      <point x="310" y="610" type="line"/>
      <point x="310" y="1583" type="line"/>
      <point x="194" y="1583" type="line"/>
    </contour>
    <contour>
      <point x="194" y="-527" type="line"/>
      <point x="310" y="-527" type="line"/>
      <point x="310" y="453" type="line"/>
      <point x="194" y="453" type="line"/>
    </contour>
  </outline>
</glyph>
<glyph name="logicalnot" format="2">
  <advance width="1042"/>
  <unicode hex="00AC"/>
  <outline>
    <contour>
      <point x="840" y="221" type="line"/>
      <point x="971" y="221" type="line"/>
      <point x="971" y="757" type="line"/>
      <point x="71" y="757" type="line"/>
      <point x="71" y="635" type="line"/>
      <point x="840" y="635" type="line"/>
    </contour>
  </outline>
</glyph>
<glyph name="questiondown" format="2">
  <advance width="890"/>
  <unicode hex="00BF"/>
  <outline>
    <contour>
      <point x="451" y="-415" type="curve" smooth="yes"/>
      <point x="603" y="-415"/>
      <point x="721" y="-339"/>
      <point x="810" y="-242" type="curve"/>
      <point x="715" y="-158" type="line"/>
      <point x="650" y="-234"/>
      <point x="563" y="-280"/>
      <point x="468" y="-280" type="curve" smooth="yes"/>
      <point x="329" y="-280"/>
      <point x="259" y="-185"/>
      <point x="259" y="-69" type="curve" smooth="yes"/>
      <point x="259" y="160"/>
      <point x="597" y="280"/>
      <point x="550" y="612" type="curve"/>
      <point x="407" y="612" type="line"/>
      <point x="443" y="312"/>
      <point x="101" y="198"/>
      <point x="101" y="-80" type="curve" smooth="yes"/>
      <point x="101" y="-284"/>
      <point x="238" y="-415"/>
    </contour>
    <contour>
      <point x="474" y="795" type="curve" smooth="yes"/>
      <point x="540" y="795"/>
      <point x="595" y="846"/>
      <point x="595" y="924" type="curve" smooth="yes"/>
      <point x="595" y="998"/>
      <point x="540" y="1049"/>
      <point x="474" y="1049" type="curve" smooth="yes"/>
      <point x="409" y="1049"/>
      <point x="354" y="998"/>
      <point x="354" y="924" type="curve" smooth="yes"/>
      <point x="354" y="846"/>
      <point x="409" y="795"/>
    </contour>
  </outline>
</glyph>
<glyph name="oe" format="2">
  <advance width="1773"/>
  <unicode hex="0153"/>
  <anchor x="935" y="1074" name="aboveLC"/>
  <anchor x="935" y="-46" name="belowLC"/>
  <outline>
    <contour>
      <point x="557" y="-25" type="curve" smooth="yes"/>
      <point x="730" y="-25"/>
      <point x="857" y="63"/>
      <point x="937" y="236" type="curve"/>
      <point x="1015" y="73"/>
      <point x="1158" y="-25"/>
      <point x="1329" y="-25" type="curve" smooth="yes"/>
      <point x="1460" y="-25"/>
      <point x="1568" y="18"/>
      <point x="1652" y="80" type="curve"/>
      <point x="1595" y="181" type="line"/>
      <point x="1524" y="132"/>
      <point x="1437" y="103"/>
      <point x="1338" y="103" type="curve" smooth="yes"/>
      <point x="1156" y="103"/>
      <point x="1017" y="251"/>
      <point x="1009" y="474" type="curve"/>
      <point x="1686" y="474" type="line"/>
      <point x="1690" y="500"/>
      <point x="1695" y="531"/>
      <point x="1695" y="567" type="curve" smooth="yes"/>
      <point x="1695" y="861"/>
      <point x="1547" y="1049"/>
      <point x="1296" y="1049" type="curve"/>
      <point x="1146" y="1049"/>
      <point x="1011" y="949"/>
      <point x="935" y="785" type="curve"/>
      <point x="863" y="958"/>
      <point x="719" y="1049"/>
      <point x="559" y="1049" type="curve" smooth="yes"/>
      <point x="314" y="1049"/>
      <point x="99" y="852"/>
      <point x="99" y="510" type="curve" smooth="yes"/>
      <point x="99" y="170"/>
      <point x="312" y="-25"/>
    </contour>
    <contour>
      <point x="559" y="109" type="curve" smooth="yes"/>
      <point x="388" y="109"/>
      <point x="263" y="270"/>
      <point x="263" y="510" type="curve" smooth="yes"/>
      <point x="263" y="751"/>
      <point x="388" y="914"/>
      <point x="559" y="914" type="curve" smooth="yes"/>
      <point x="734" y="914"/>
      <point x="857" y="751"/>
      <point x="857" y="510" type="curve" smooth="yes"/>
      <point x="857" y="270"/>
      <point x="734" y="109"/>
    </contour>
    <contour>
      <point x="1009" y="588" type="line"/>
      <point x="1028" y="789"/>
      <point x="1150" y="920"/>
      <point x="1296" y="920" type="curve" smooth="yes"/>
      <point x="1454" y="920"/>
      <point x="1551" y="804"/>
      <point x="1551" y="588" type="curve"/>
    </contour>
  </outline>
</glyph>
<glyph name="florin" format="2">
  <advance width="605"/>
  <unicode hex="0192"/>
  <anchor x="455" y="1534" name="aboveUC"/>
  <anchor x="154" y="-445" name="belowLC"/>
  <outline>
    <contour>
      <point x="90" y="-462" type="curve" smooth="yes"/>
      <point x="289" y="-462"/>
      <point x="365" y="-335"/>
      <point x="365" y="-126" type="curve" smooth="yes"/>
      <point x="365" y="1194" type="line" smooth="yes"/>
      <point x="365" y="1327"/>
      <point x="411" y="1399"/>
      <point x="510" y="1399" type="curve" smooth="yes"/>
      <point x="546" y="1399"/>
      <point x="586" y="1391"/>
      <point x="626" y="1378" type="curve"/>
      <point x="662" y="1496" type="line"/>
      <point x="620" y="1515"/>
      <point x="555" y="1530"/>
      <point x="496" y="1530" type="curve" smooth="yes"/>
      <point x="297" y="1530"/>
      <point x="202" y="1403"/>
      <point x="202" y="1196" type="curve" smooth="yes"/>
      <point x="202" y="-124" type="line" smooth="yes"/>
      <point x="202" y="-251"/>
      <point x="179" y="-329"/>
      <point x="73" y="-329" type="curve" smooth="yes"/>
      <point x="40" y="-329"/>
      <point x="2" y="-318"/>
      <point x="-23" y="-310" type="curve"/>
      <point x="-56" y="-432" type="line"/>
      <point x="-21" y="-449"/>
      <point x="33" y="-462"/>
    </contour>
    <contour>
      <point x="63" y="890" type="line"/>
      <point x="584" y="890" type="line"/>
      <point x="584" y="1023" type="line"/>
      <point x="208" y="1023" type="line"/>
      <point x="63" y="1015" type="line"/>
    </contour>
  </outline>
</glyph>
<glyph name="colontriangularmod" format="2">
  <advance width="409"/>
  <unicode hex="02D0"/>
  <outline>
    <contour>
      <point x="54" y="0" type="line"/>
      <point x="354" y="0" type="line"/>
      <point x="215" y="289" type="line"/>
      <point x="194" y="289" type="line"/>
    </contour>
    <contour>
      <point x="194" y="736" type="line"/>
      <point x="215" y="736" type="line"/>
      <point x="354" y="1023" type="line"/>
      <point x="54" y="1023" type="line"/>
    </contour>
  </outline>
</glyph>
<glyph name="macroncmb" format="2">
  <unicode hex="0304"/>
  <anchor x="0" y="1074" name="_aboveLC"/>
  <anchor x="0" y="1397" name="aboveLC"/>
  <outline>
    <contour>
      <point x="-276" y="1268" type="line"/>
      <point x="276" y="1268" type="line"/>
      <point x="276" y="1384" type="line"/>
      <point x="-276" y="1384" type="line"/>
    </contour>
  </outline>
</glyph>
<glyph name="fraction" format="2">
  <advance width="179"/>
  <unicode hex="2044"/>
  <outline>
    <contour>
      <point x="-350" y="-25" type="line"/>
      <point x="-240" y="-25" type="line"/>
      <point x="525" y="1412" type="line"/>
      <point x="413" y="1412" type="line"/>
    </contour>
  </outline>
</glyph>
<glyph name="trademark" format="2">
  <advance width="1336"/>
  <unicode hex="2122"/>
  <outline>
    <contour>
      <point x="217" y="774" type="line"/>
      <point x="337" y="774" type="line"/>
      <point x="337" y="1317" type="line"/>
      <point x="550" y="1317" type="line"/>
      <point x="550" y="1427" type="line"/>
      <point x="6" y="1427" type="line"/>
      <point x="6" y="1317" type="line"/>
      <point x="217" y="1317" type="line"/>
    </contour>
    <contour>
      <point x="654" y="774" type="line"/>
      <point x="766" y="774" type="line"/>
      <point x="766" y="1070" type="line"/>
      <point x="751" y="1289" type="line"/>
      <point x="759" y="1289" type="line"/>
      <point x="918" y="873" type="line"/>
      <point x="1013" y="873" type="line"/>
      <point x="1169" y="1289" type="line"/>
      <point x="1177" y="1289" type="line"/>
      <point x="1163" y="1070" type="line"/>
      <point x="1163" y="774" type="line"/>
      <point x="1275" y="774" type="line"/>
      <point x="1275" y="1427" type="line"/>
      <point x="1129" y="1427" type="line"/>
      <point x="1030" y="1180" type="line"/>
      <point x="971" y="1011" type="line"/>
      <point x="962" y="1011" type="line"/>
      <point x="903" y="1180" type="line"/>
      <point x="800" y="1427" type="line"/>
      <point x="654" y="1427" type="line"/>
    </contour>
  </outline>
</glyph>
<glyph name="notequal" format="2">
  <advance width="1042"/>
  <unicode hex="2260"/>
  <outline>
    <contour>
      <point x="128" y="143" type="line"/>
      <point x="251" y="143" type="line"/>
      <point x="413" y="409" type="line"/>
      <point x="971" y="409" type="line"/>
      <point x="971" y="534" type="line"/>
      <point x="483" y="534" type="line"/>
      <point x="679" y="859" type="line"/>
      <point x="971" y="859" type="line"/>
      <point x="971" y="983" type="line"/>
      <point x="751" y="983" type="line"/>
      <point x="914" y="1249" type="line"/>
      <point x="791" y="1249" type="line"/>
      <point x="631" y="983" type="line"/>
      <point x="71" y="983" type="line"/>
      <point x="71" y="859" type="line"/>
      <point x="559" y="859" type="line"/>
      <point x="363" y="534" type="line"/>
      <point x="71" y="534" type="line"/>
      <point x="71" y="409" type="line"/>
      <point x="291" y="409" type="line"/>
    </contour>
  </outline>
</glyph>
<glyph name="circledotted" format="2">
  <advance width="1237"/>
  <unicode hex="25CC"/>
  <anchor x="620" y="1074" name="aboveLC"/>
  <anchor x="998" y="1074" name="aboverightLC"/>
  <anchor x="620" y="0" name="baseLC"/>
  <anchor x="620" y="-46" name="belowLC"/>
  <anchor x="620" y="512" name="center"/>
  <anchor x="863" y="1023" name="hornLC"/>
  <anchor x="620" y="0" name="ogonekLC"/>
  <outline>
    <contour>
      <point x="227" y="204" type="curve" smooth="yes"/>
      <point x="274" y="204"/>
      <point x="301" y="234"/>
      <point x="301" y="280" type="curve" smooth="yes"/>
      <point x="301" y="331"/>
      <point x="272" y="358"/>
      <point x="227" y="358" type="curve" smooth="yes"/>
      <point x="189" y="358"/>
      <point x="156" y="331"/>
      <point x="156" y="280" type="curve" smooth="yes"/>
      <point x="156" y="234"/>
      <point x="189" y="204"/>
    </contour>
    <contour>
      <point x="168" y="434" type="curve" smooth="yes"/>
      <point x="215" y="434"/>
      <point x="244" y="464"/>
      <point x="244" y="512" type="curve" smooth="yes"/>
      <point x="244" y="561"/>
      <point x="213" y="586"/>
      <point x="168" y="586" type="curve" smooth="yes"/>
      <point x="132" y="586"/>
      <point x="99" y="561"/>
      <point x="99" y="512" type="curve" smooth="yes"/>
      <point x="99" y="464"/>
      <point x="132" y="434"/>
    </contour>
    <contour>
      <point x="227" y="667" type="curve" smooth="yes"/>
      <point x="274" y="667"/>
      <point x="301" y="696"/>
      <point x="301" y="747" type="curve" smooth="yes"/>
      <point x="301" y="795"/>
      <point x="272" y="821"/>
      <point x="227" y="821" type="curve" smooth="yes"/>
      <point x="189" y="821"/>
      <point x="156" y="795"/>
      <point x="156" y="747" type="curve" smooth="yes"/>
      <point x="156" y="696"/>
      <point x="189" y="667"/>
    </contour>
    <contour>
      <point x="394" y="31" type="curve" smooth="yes"/>
      <point x="436" y="31"/>
      <point x="466" y="59"/>
      <point x="466" y="111" type="curve" smooth="yes"/>
      <point x="466" y="158"/>
      <point x="434" y="183"/>
      <point x="394" y="183" type="curve" smooth="yes"/>
      <point x="354" y="183"/>
      <point x="322" y="158"/>
      <point x="322" y="111" type="curve" smooth="yes"/>
      <point x="322" y="59"/>
      <point x="354" y="31"/>
    </contour>
    <contour>
      <point x="394" y="840" type="curve" smooth="yes"/>
      <point x="436" y="840"/>
      <point x="466" y="869"/>
      <point x="466" y="916" type="curve" smooth="yes"/>
      <point x="466" y="968"/>
      <point x="434" y="992"/>
      <point x="394" y="992" type="curve" smooth="yes"/>
      <point x="354" y="992"/>
      <point x="322" y="968"/>
      <point x="322" y="916" type="curve" smooth="yes"/>
      <point x="322" y="869"/>
      <point x="354" y="840"/>
    </contour>
    <contour>
      <point x="618" y="-25" type="curve" smooth="yes"/>
      <point x="660" y="-25"/>
      <point x="692" y="2"/>
      <point x="692" y="50" type="curve" smooth="yes"/>
      <point x="692" y="99"/>
      <point x="660" y="126"/>
      <point x="618" y="126" type="curve" smooth="yes"/>
      <point x="578" y="126"/>
      <point x="546" y="99"/>
      <point x="546" y="50" type="curve" smooth="yes"/>
      <point x="546" y="2"/>
      <point x="578" y="-25"/>
    </contour>
    <contour>
      <point x="618" y="895" type="curve" smooth="yes"/>
      <point x="660" y="895"/>
      <point x="692" y="924"/>
      <point x="692" y="973" type="curve" smooth="yes"/>
      <point x="692" y="1021"/>
      <point x="660" y="1049"/>
      <point x="618" y="1049" type="curve" smooth="yes"/>
      <point x="578" y="1049"/>
      <point x="546" y="1021"/>
      <point x="546" y="973" type="curve" smooth="yes"/>
      <point x="546" y="924"/>
      <point x="578" y="895"/>
    </contour>
    <contour>
      <point x="840" y="31" type="curve" smooth="yes"/>
      <point x="886" y="31"/>
      <point x="914" y="59"/>
      <point x="914" y="111" type="curve" smooth="yes"/>
      <point x="914" y="158"/>
      <point x="882" y="183"/>
      <point x="840" y="183" type="curve" smooth="yes"/>
      <point x="802" y="183"/>
      <point x="770" y="158"/>
      <point x="770" y="111" type="curve" smooth="yes"/>
      <point x="770" y="59"/>
      <point x="802" y="31"/>
    </contour>
    <contour>
      <point x="840" y="838" type="curve" smooth="yes"/>
      <point x="886" y="838"/>
      <point x="914" y="869"/>
      <point x="914" y="916" type="curve" smooth="yes"/>
      <point x="914" y="966"/>
      <point x="882" y="992"/>
      <point x="840" y="992" type="curve" smooth="yes"/>
      <point x="802" y="992"/>
      <point x="770" y="966"/>
      <point x="770" y="916" type="curve" smooth="yes"/>
      <point x="770" y="869"/>
      <point x="802" y="838"/>
    </contour>
    <contour>
      <point x="1009" y="204" type="curve" smooth="yes"/>
      <point x="1053" y="204"/>
      <point x="1080" y="234"/>
      <point x="1080" y="280" type="curve" smooth="yes"/>
      <point x="1080" y="331"/>
      <point x="1049" y="358"/>
      <point x="1009" y="358" type="curve" smooth="yes"/>
      <point x="968" y="358"/>
      <point x="935" y="331"/>
      <point x="935" y="280" type="curve" smooth="yes"/>
      <point x="935" y="234"/>
      <point x="968" y="204"/>
    </contour>
    <contour>
      <point x="1066" y="434" type="curve" smooth="yes"/>
      <point x="1108" y="434"/>
      <point x="1139" y="464"/>
      <point x="1139" y="512" type="curve" smooth="yes"/>
      <point x="1139" y="561"/>
      <point x="1104" y="586"/>
      <point x="1066" y="586" type="curve" smooth="yes"/>
      <point x="1023" y="586"/>
      <point x="992" y="561"/>
      <point x="992" y="512" type="curve" smooth="yes"/>
      <point x="992" y="464"/>
      <point x="1023" y="434"/>
    </contour>
    <contour>
      <point x="1009" y="667" type="curve" smooth="yes"/>
      <point x="1053" y="667"/>
      <point x="1080" y="694"/>
      <point x="1080" y="743" type="curve" smooth="yes"/>
      <point x="1080" y="791"/>
      <point x="1049" y="819"/>
      <point x="1009" y="819" type="curve" smooth="yes"/>
      <point x="968" y="819"/>
      <point x="935" y="791"/>
      <point x="935" y="743" type="curve" smooth="yes"/>
      <point x="935" y="694"/>
      <point x="968" y="667"/>
    </contour>
  </outline>
</glyph>
<glyph name="yah-tifi" format="2">
  <advance width="1454"/>
  <unicode hex="2D40"/>
  <anchor x="736" y="1393" name="T"/>
  <outline>
    <contour>
      <point x="715" y="-30" type="curve" smooth="yes"/>
      <point x="1057" y="-30"/>
      <point x="1354" y="318"/>
      <point x="1354" y="715" type="curve" smooth="yes"/>
      <point x="1354" y="1112"/>
      <point x="1077" y="1420"/>
      <point x="735" y="1420" type="curve" smooth="yes"/>
      <point x="393" y="1420"/>
      <point x="100" y="1072"/>
      <point x="100" y="675" type="curve" smooth="yes"/>
      <point x="100" y="278"/>
      <point x="373" y="-30"/>
    </contour>
    <contour>
      <point x="657" y="114" type="curve"/>
      <point x="444" y="173"/>
      <point x="270" y="430"/>
      <point x="270" y="717" type="curve" smooth="yes"/>
      <point x="270" y="1017"/>
      <point x="426" y="1251"/>
      <point x="647" y="1287" type="curve"/>
      <point x="647" y="1285"/>
      <point x="647" y="1284"/>
      <point x="647" y="1282" type="curve" smooth="yes"/>
      <point x="643" y="1211"/>
      <point x="643" y="1124"/>
      <point x="643" y="1030" type="curve" smooth="yes"/>
      <point x="643" y="750"/>
      <point x="658" y="640"/>
      <point x="658" y="360" type="curve" smooth="yes"/>
      <point x="658" y="205"/>
      <point x="657" y="152"/>
    </contour>
    <contour>
      <point x="824" y="110" type="curve"/>
      <point x="828" y="181"/>
      <point x="828" y="267"/>
      <point x="828" y="360" type="curve" smooth="yes"/>
      <point x="828" y="640"/>
      <point x="813" y="750"/>
      <point x="813" y="1030" type="curve" smooth="yes"/>
      <point x="813" y="1184"/>
      <point x="814" y="1237"/>
      <point x="814" y="1275" type="curve"/>
      <point x="1019" y="1208"/>
      <point x="1184" y="956"/>
      <point x="1184" y="677" type="curve" smooth="yes"/>
      <point x="1184" y="385"/>
      <point x="1036" y="155"/>
    </contour>
  </outline>
</glyph>
<glyph name="yam-tifi" format="2">
  <advance width="1252"/>
  <unicode hex="2D4E"/>
  <anchor x="670" y="1393" name="T"/>
  <outline>
    <contour>
      <point x="1057" y="1312" type="curve" smooth="yes"/>
      <point x="1057" y="1376"/>
      <point x="1011" y="1393"/>
      <point x="934" y="1393" type="curve" smooth="yes"/>
      <point x="885" y="1393"/>
      <point x="598" y="1389"/>
      <point x="542" y="1389" type="curve" smooth="yes"/>
      <point x="478" y="1389"/>
      <point x="382" y="1393"/>
      <point x="349" y="1393" type="curve" smooth="yes"/>
      <point x="257" y="1393"/>
      <point x="204" y="1355"/>
      <point x="204" y="1269" type="curve" smooth="yes"/>
      <point x="204" y="1197"/>
      <point x="200" y="1107"/>
      <point x="200" y="1013" type="curve" smooth="yes"/>
      <point x="200" y="733"/>
      <point x="215" y="660"/>
      <point x="215" y="380" type="curve" smooth="yes"/>
      <point x="215" y="217"/>
      <point x="214" y="165"/>
      <point x="214" y="124" type="curve" smooth="yes"/>
      <point x="214" y="38"/>
      <point x="267" y="0"/>
      <point x="359" y="0" type="curve" smooth="yes"/>
      <point x="392" y="0"/>
      <point x="488" y="4"/>
      <point x="552" y="4" type="curve" smooth="yes"/>
      <point x="608" y="4"/>
      <point x="885" y="0"/>
      <point x="934" y="0" type="curve" smooth="yes"/>
      <point x="1011" y="0"/>
      <point x="1057" y="17"/>
      <point x="1057" y="81" type="curve" smooth="yes"/>
      <point x="1057" y="117"/>
      <point x="1043" y="145"/>
      <point x="1012" y="145" type="curve" smooth="yes"/>
      <point x="979" y="145"/>
      <point x="977" y="137"/>
      <point x="930" y="137" type="curve" smooth="yes"/>
      <point x="891" y="137"/>
      <point x="682" y="143"/>
      <point x="588" y="143" type="curve" smooth="yes"/>
      <point x="525" y="143"/>
      <point x="436" y="138"/>
      <point x="381" y="138" type="curve"/>
      <point x="385" y="207"/>
      <point x="385" y="291"/>
      <point x="385" y="380" type="curve" smooth="yes"/>
      <point x="385" y="607"/>
      <point x="368" y="820"/>
      <point x="368" y="1072" type="curve" smooth="yes"/>
      <point x="368" y="1130"/>
      <point x="369" y="1192"/>
      <point x="371" y="1255" type="curve"/>
      <point x="426" y="1255"/>
      <point x="515" y="1250"/>
      <point x="578" y="1250" type="curve" smooth="yes"/>
      <point x="672" y="1250"/>
      <point x="891" y="1256"/>
      <point x="930" y="1256" type="curve" smooth="yes"/>
      <point x="977" y="1256"/>
      <point x="979" y="1248"/>
      <point x="1012" y="1248" type="curve" smooth="yes"/>
      <point x="1043" y="1248"/>
      <point x="1057" y="1276"/>
    </contour>
  </outline>
</glyph>
<glyph name="yach-tifi" format="2">
  <advance width="1287"/>
  <unicode hex="2D5E"/>
  <anchor x="755" y="1393" name="T"/>
  <outline>
    <contour>
      <point x="1187" y="1200" type="curve" smooth="yes"/>
      <point x="1187" y="1299"/>
      <point x="1080" y="1408"/>
      <point x="914" y="1408" type="curve" smooth="yes"/>
      <point x="588" y="1408"/>
      <point x="105" y="1217"/>
      <point x="105" y="675" type="curve" smooth="yes"/>
      <point x="105" y="143"/>
      <point x="568" y="-30"/>
      <point x="863" y="-30" type="curve" smooth="yes"/>
      <point x="1078" y="-30"/>
      <point x="1187" y="102"/>
      <point x="1187" y="251" type="curve" smooth="yes"/>
      <point x="1187" y="370"/>
      <point x="1071" y="460"/>
      <point x="947" y="460" type="curve" smooth="yes"/>
      <point x="823" y="460"/>
      <point x="629" y="360"/>
      <point x="629" y="177" type="curve" smooth="yes"/>
      <point x="629" y="34"/>
      <point x="706" y="7"/>
      <point x="739" y="7" type="curve" smooth="yes"/>
      <point x="772" y="7"/>
      <point x="849" y="42"/>
      <point x="849" y="93" type="curve" smooth="yes"/>
      <point x="849" y="114"/>
      <point x="795" y="115"/>
      <point x="795" y="219" type="curve" smooth="yes"/>
      <point x="795" y="296"/>
      <point x="830" y="320"/>
      <point x="894" y="320" type="curve" smooth="yes"/>
      <point x="955" y="320"/>
      <point x="1015" y="280"/>
      <point x="1015" y="204" type="curve" smooth="yes"/>
      <point x="1015" y="128"/>
      <point x="970" y="102"/>
      <point x="914" y="102" type="curve" smooth="yes"/>
      <point x="808" y="102"/>
      <point x="274" y="196"/>
      <point x="274" y="698" type="curve" smooth="yes"/>
      <point x="274" y="1190"/>
      <point x="696" y="1269"/>
      <point x="865" y="1269" type="curve" smooth="yes"/>
      <point x="1004" y="1269"/>
      <point x="1024" y="1181"/>
      <point x="1024" y="1138" type="curve" smooth="yes"/>
      <point x="1024" y="1095"/>
      <point x="1005" y="1057"/>
      <point x="946" y="1057" type="curve" smooth="yes"/>
      <point x="887" y="1057"/>
      <point x="797" y="1096"/>
      <point x="797" y="1172" type="curve" smooth="yes"/>
      <point x="797" y="1232"/>
      <point x="852" y="1283"/>
      <point x="852" y="1328" type="curve" smooth="yes"/>
      <point x="852" y="1356"/>
      <point x="829" y="1358"/>
      <point x="795" y="1358" type="curve" smooth="yes"/>
      <point x="761" y="1358"/>
      <point x="632" y="1300"/>
      <point x="632" y="1131" type="curve" smooth="yes"/>
      <point x="632" y="962"/>
      <point x="785" y="918"/>
      <point x="887" y="918" type="curve" smooth="yes"/>
      <point x="1036" y="918"/>
      <point x="1187" y="1011"/>
    </contour>
    <contour>
      <point x="263" y="617" type="curve" smooth="yes"/>
      <point x="383" y="617"/>
      <point x="485" y="626"/>
      <point x="596" y="626" type="curve" smooth="yes"/>
      <point x="758" y="626"/>
      <point x="724" y="617"/>
      <point x="763" y="617" type="curve" smooth="yes"/>
      <point x="788" y="617"/>
      <point x="802" y="640"/>
      <point x="802" y="670" type="curve" smooth="yes"/>
      <point x="802" y="737"/>
      <point x="761" y="766"/>
      <point x="699" y="766" type="curve" smooth="yes"/>
      <point x="579" y="766"/>
      <point x="477" y="757"/>
      <point x="366" y="757" type="curve" smooth="yes"/>
      <point x="204" y="757"/>
      <point x="238" y="766"/>
      <point x="199" y="766" type="curve" smooth="yes"/>
      <point x="174" y="766"/>
      <point x="160" y="743"/>
      <point x="160" y="713" type="curve" smooth="yes"/>
      <point x="160" y="646"/>
      <point x="201" y="617"/>
    </contour>
    <contour>
      <point x="502" y="415" type="curve" smooth="yes"/>
      <point x="571" y="415"/>
      <point x="603" y="450"/>
      <point x="603" y="591" type="curve" smooth="yes"/>
      <point x="603" y="708"/>
      <point x="595" y="677"/>
      <point x="595" y="760" type="curve" smooth="yes"/>
      <point x="595" y="922"/>
      <point x="604" y="888"/>
      <point x="604" y="927" type="curve" smooth="yes"/>
      <point x="604" y="952"/>
      <point x="581" y="966"/>
      <point x="551" y="966" type="curve" smooth="yes"/>
      <point x="482" y="966"/>
      <point x="450" y="931"/>
      <point x="450" y="790" type="curve" smooth="yes"/>
      <point x="450" y="673"/>
      <point x="458" y="717"/>
      <point x="458" y="634" type="curve" smooth="yes"/>
      <point x="458" y="472"/>
      <point x="449" y="493"/>
      <point x="449" y="454" type="curve" smooth="yes"/>
      <point x="449" y="429"/>
      <point x="472" y="415"/>
    </contour>
  </outline>
</glyph>
<glyph name="yaz-tifi" format="2">
  <advance width="1121"/>
  <unicode hex="2D63"/>
  <anchor x="564" y="1393" name="T"/>
  <outline>
    <contour>
      <point x="576" y="1038" type="curve" smooth="yes"/>
      <point x="414" y="1038"/>
      <point x="293" y="1193"/>
      <point x="293" y="1356" type="curve" smooth="yes"/>
      <point x="293" y="1371"/>
      <point x="281" y="1393"/>
      <point x="236" y="1393" type="curve" smooth="yes"/>
      <point x="160" y="1393"/>
      <point x="123" y="1332"/>
      <point x="123" y="1293" type="curve" smooth="yes"/>
      <point x="123" y="1074"/>
      <point x="300" y="900"/>
      <point x="510" y="900" type="curve" smooth="yes"/>
      <point x="844" y="900"/>
      <point x="1021" y="1269"/>
      <point x="1021" y="1346" type="curve" smooth="yes"/>
      <point x="1021" y="1368"/>
      <point x="1008" y="1393"/>
      <point x="953" y="1393" type="curve" smooth="yes"/>
      <point x="925" y="1393"/>
      <point x="870" y="1370"/>
      <point x="859" y="1328" type="curve" smooth="yes"/>
      <point x="845" y="1276"/>
      <point x="751" y="1038"/>
    </contour>
    <contour>
      <point x="545" y="355" type="curve" smooth="yes"/>
      <point x="707" y="355"/>
      <point x="828" y="200"/>
      <point x="828" y="37" type="curve" smooth="yes"/>
      <point x="828" y="22"/>
      <point x="840" y="0"/>
      <point x="885" y="0" type="curve" smooth="yes"/>
      <point x="961" y="0"/>
      <point x="998" y="61"/>
      <point x="998" y="100" type="curve" smooth="yes"/>
      <point x="998" y="319"/>
      <point x="821" y="493"/>
      <point x="611" y="493" type="curve" smooth="yes"/>
      <point x="277" y="493"/>
      <point x="100" y="124"/>
      <point x="100" y="47" type="curve" smooth="yes"/>
      <point x="100" y="25"/>
      <point x="113" y="0"/>
      <point x="168" y="0" type="curve" smooth="yes"/>
      <point x="196" y="0"/>
      <point x="251" y="23"/>
      <point x="262" y="65" type="curve" smooth="yes"/>
      <point x="276" y="117"/>
      <point x="370" y="355"/>
    </contour>
    <contour>
      <point x="538" y="0" type="curve" smooth="yes"/>
      <point x="592" y="0"/>
      <point x="645" y="41"/>
      <point x="649" y="89" type="curve" smooth="yes"/>
      <point x="656" y="167"/>
      <point x="656" y="268"/>
      <point x="656" y="380" type="curve" smooth="yes"/>
      <point x="656" y="660"/>
      <point x="641" y="733"/>
      <point x="641" y="1013" type="curve" smooth="yes"/>
      <point x="641" y="1177"/>
      <point x="642" y="1226"/>
      <point x="642" y="1265" type="curve" smooth="yes"/>
      <point x="642" y="1313"/>
      <point x="652" y="1314"/>
      <point x="652" y="1347" type="curve" smooth="yes"/>
      <point x="652" y="1377"/>
      <point x="625" y="1393"/>
      <point x="589" y="1393" type="curve" smooth="yes"/>
      <point x="535" y="1393"/>
      <point x="482" y="1352"/>
      <point x="478" y="1304" type="curve" smooth="yes"/>
      <point x="471" y="1226"/>
      <point x="471" y="1125"/>
      <point x="471" y="1013" type="curve" smooth="yes"/>
      <point x="471" y="733"/>
      <point x="486" y="660"/>
      <point x="486" y="380" type="curve" smooth="yes"/>
      <point x="486" y="216"/>
      <point x="485" y="167"/>
      <point x="485" y="128" type="curve" smooth="yes"/>
      <point x="485" y="80"/>
      <point x="475" y="79"/>
      <point x="475" y="46" type="curve" smooth="yes"/>
      <point x="475" y="16"/>
      <point x="502" y="0"/>
    </contour>
  </outline>
</glyph>
<glyph name="LabializationMark-tifi" format="2">
  <advance width="632"/>
  <unicode hex="2D6F"/>
  <outline>
    <contour>
      <point x="349" y="1076" type="curve" smooth="yes"/>
      <point x="435" y="1076"/>
      <point x="470" y="1075"/>
      <point x="493" y="1075" type="curve" smooth="yes"/>
      <point x="548" y="1075"/>
      <point x="577" y="1106"/>
      <point x="577" y="1196" type="curve" smooth="yes"/>
      <point x="577" y="1377"/>
      <point x="582" y="1336"/>
      <point x="582" y="1369" type="curve" smooth="yes"/>
      <point x="582" y="1390"/>
      <point x="562" y="1402"/>
      <point x="536" y="1402" type="curve" smooth="yes"/>
      <point x="476" y="1402"/>
      <point x="454" y="1368"/>
      <point x="454" y="1275" type="curve" smooth="yes"/>
      <point x="454" y="1177" type="line"/>
      <point x="422" y="1178"/>
      <point x="398" y="1178"/>
      <point x="379" y="1178" type="curve" smooth="yes"/>
      <point x="331" y="1178"/>
      <point x="274" y="1173"/>
      <point x="237" y="1173" type="curve" smooth="yes"/>
      <point x="217" y="1173"/>
      <point x="197" y="1173"/>
      <point x="173" y="1173" type="curve"/>
      <point x="173" y="1235" type="line" smooth="yes"/>
      <point x="173" y="1373"/>
      <point x="178" y="1337"/>
      <point x="178" y="1370" type="curve" smooth="yes"/>
      <point x="178" y="1391"/>
      <point x="158" y="1403"/>
      <point x="132" y="1403" type="curve" smooth="yes"/>
      <point x="77" y="1403"/>
      <point x="50" y="1373"/>
      <point x="50" y="1286" type="curve" smooth="yes"/>
      <point x="50" y="1200" type="line" smooth="yes"/>
      <point x="50" y="1078"/>
      <point x="56" y="1071"/>
      <point x="188" y="1071" type="curve" smooth="yes"/>
      <point x="245" y="1071"/>
      <point x="291" y="1076"/>
    </contour>
  </outline>
</glyph>
<glyph name="uniFFFD" format="2">
  <advance width="1403"/>
  <unicode hex="FFFD"/>
  <outline>
    <contour>
      <point x="975" y="901" type="curve"/>
      <point x="975" y="793"/>
      <point x="907" y="715"/>
      <point x="863" y="667" type="curve" smooth="yes"/>
      <point x="757" y="553"/>
      <point x="713" y="498"/>
      <point x="707" y="365" type="curve"/>
      <point x="675" y="365" type="line"/>
      <point x="683" y="479"/>
      <point x="713" y="572"/>
      <point x="774" y="677" type="curve" smooth="yes"/>
      <point x="804" y="728"/>
      <point x="842" y="816"/>
      <point x="842" y="890" type="curve" smooth="yes"/>
      <point x="842" y="1034"/>
      <point x="751" y="1089"/>
      <point x="675" y="1089" type="curve" smooth="yes"/>
      <point x="582" y="1089"/>
      <point x="538" y="1036"/>
      <point x="538" y="994" type="curve" smooth="yes"/>
      <point x="538" y="954"/>
      <point x="584" y="903"/>
      <point x="584" y="871" type="curve" smooth="yes"/>
      <point x="584" y="831"/>
      <point x="550" y="810"/>
      <point x="525" y="810" type="curve" smooth="yes"/>
      <point x="504" y="810"/>
      <point x="447" y="829"/>
      <point x="447" y="920" type="curve" smooth="yes"/>
      <point x="447" y="1028"/>
      <point x="538" y="1129"/>
      <point x="705" y="1129" type="curve" smooth="yes"/>
      <point x="861" y="1129"/>
      <point x="975" y="1042"/>
    </contour>
    <contour>
      <point x="776" y="196" type="curve"/>
      <point x="776" y="143"/>
      <point x="736" y="116"/>
      <point x="698" y="116" type="curve" smooth="yes"/>
      <point x="656" y="116"/>
      <point x="616" y="145"/>
      <point x="616" y="196" type="curve" smooth="yes"/>
      <point x="616" y="240"/>
      <point x="654" y="276"/>
      <point x="698" y="276" type="curve" smooth="yes"/>
      <point x="738" y="276"/>
      <point x="776" y="244"/>
    </contour>
    <contour>
      <point x="1403" y="673" type="line"/>
      <point x="698" y="1372" type="line"/>
      <point x="0" y="673" type="line"/>
      <point x="698" y="-25" type="line"/>
    </contour>
  </outline>
</glyph>
<glyph name="_Plus" format="2">
  <advance width="1470"/>
  <outline>
    <contour>
      <point x="23" y="317" type="curve" smooth="yes"/>
      <point x="143" y="317"/>
      <point x="435" y="326"/>
      <point x="546" y="326" type="curve" smooth="yes"/>
      <point x="708" y="326"/>
      <point x="674" y="317"/>
      <point x="713" y="317" type="curve" smooth="yes"/>
      <point x="738" y="317"/>
      <point x="752" y="340"/>
      <point x="752" y="370" type="curve" smooth="yes"/>
      <point x="752" y="437"/>
      <point x="711" y="446"/>
      <point x="649" y="446" type="curve" smooth="yes"/>
      <point x="529" y="446"/>
      <point x="237" y="437"/>
      <point x="126" y="437" type="curve" smooth="yes"/>
      <point x="-36" y="437"/>
      <point x="-2" y="446"/>
      <point x="-41" y="446" type="curve" smooth="yes"/>
      <point x="-66" y="446"/>
      <point x="-80" y="423"/>
      <point x="-80" y="393" type="curve" smooth="yes"/>
      <point x="-80" y="326"/>
      <point x="-39" y="317"/>
    </contour>
    <contour>
      <point x="402" y="55" type="curve" smooth="yes"/>
      <point x="471" y="55"/>
      <point x="503" y="90"/>
      <point x="503" y="231" type="curve" smooth="yes"/>
      <point x="503" y="348"/>
      <point x="495" y="417"/>
      <point x="495" y="500" type="curve" smooth="yes"/>
      <point x="495" y="662"/>
      <point x="504" y="628"/>
      <point x="504" y="667" type="curve" smooth="yes"/>
      <point x="504" y="692"/>
      <point x="481" y="706"/>
      <point x="451" y="706" type="curve" smooth="yes"/>
      <point x="382" y="706"/>
      <point x="350" y="671"/>
      <point x="350" y="530" type="curve" smooth="yes"/>
      <point x="350" y="413"/>
      <point x="358" y="357"/>
      <point x="358" y="274" type="curve" smooth="yes"/>
      <point x="358" y="112"/>
      <point x="349" y="133"/>
      <point x="349" y="94" type="curve" smooth="yes"/>
      <point x="349" y="69"/>
      <point x="372" y="55"/>
    </contour>
  </outline>
</glyph>
<glyph name="_PlusVertical" format="2">
  <advance width="1470"/>
  <outline>
    <contour>
      <point x="63" y="-2" type="curve" smooth="yes"/>
      <point x="140" y="-2"/>
      <point x="182" y="67"/>
      <point x="182" y="176" type="curve" smooth="yes"/>
      <point x="182" y="324"/>
      <point x="172" y="426"/>
      <point x="172" y="524" type="curve" smooth="yes"/>
      <point x="172" y="715"/>
      <point x="183" y="675"/>
      <point x="183" y="721" type="curve" smooth="yes"/>
      <point x="183" y="750"/>
      <point x="156" y="767"/>
      <point x="120" y="767" type="curve" smooth="yes"/>
      <point x="43" y="767"/>
      <point x="1" y="698"/>
      <point x="1" y="579" type="curve" smooth="yes"/>
      <point x="1" y="421"/>
      <point x="11" y="339"/>
      <point x="11" y="241" type="curve" smooth="yes"/>
      <point x="11" y="50"/>
      <point x="0" y="90"/>
      <point x="0" y="44" type="curve" smooth="yes"/>
      <point x="0" y="15"/>
      <point x="27" y="-2"/>
    </contour>
  </outline>
</glyph>
<glyph name="_VerticalBarMedLong" format="2">
  <advance width="1470"/>
  <outline>
    <contour>
      <point x="68" y="0" type="curve" smooth="yes"/>
      <point x="122" y="0"/>
      <point x="171" y="41"/>
      <point x="179" y="89" type="curve" smooth="yes"/>
      <point x="186" y="133"/>
      <point x="186" y="197"/>
      <point x="186" y="276" type="curve" smooth="yes"/>
      <point x="186" y="390"/>
      <point x="178" y="488"/>
      <point x="178" y="584" type="curve" smooth="yes"/>
      <point x="178" y="644"/>
      <point x="179" y="683"/>
      <point x="179" y="712" type="curve" smooth="yes"/>
      <point x="179" y="760"/>
      <point x="189" y="761"/>
      <point x="189" y="794" type="curve" smooth="yes"/>
      <point x="189" y="824"/>
      <point x="157" y="840"/>
      <point x="121" y="840" type="curve" smooth="yes"/>
      <point x="67" y="840"/>
      <point x="17" y="799"/>
      <point x="10" y="751" type="curve" smooth="yes"/>
      <point x="3" y="703"/>
      <point x="3" y="633"/>
      <point x="3" y="584" type="curve" smooth="yes"/>
      <point x="3" y="470"/>
      <point x="11" y="372"/>
      <point x="11" y="276" type="curve" smooth="yes"/>
      <point x="11" y="244"/>
      <point x="10" y="173"/>
      <point x="10" y="127" type="curve" smooth="yes"/>
      <point x="10" y="83"/>
      <point x="0" y="78"/>
      <point x="0" y="46" type="curve" smooth="yes"/>
      <point x="0" y="16"/>
      <point x="32" y="0"/>
    </contour>
  </outline>
</glyph>
<glyph name="a.sups" format="2">
  <advance width="726"/>
  <outline>
    <contour>
      <point x="287" y="819" type="curve" smooth="yes"/>
      <point x="373" y="819"/>
      <point x="445" y="865"/>
      <point x="502" y="916" type="curve"/>
      <point x="510" y="916" type="line"/>
      <point x="525" y="835" type="line"/>
      <point x="624" y="835" type="line"/>
      <point x="624" y="1251" type="line" smooth="yes"/>
      <point x="624" y="1427"/>
      <point x="553" y="1530"/>
      <point x="386" y="1530" type="curve" smooth="yes"/>
      <point x="276" y="1530"/>
      <point x="175" y="1484"/>
      <point x="107" y="1441" type="curve"/>
      <point x="151" y="1355" type="line"/>
      <point x="208" y="1391"/>
      <point x="293" y="1429"/>
      <point x="369" y="1429" type="curve" smooth="yes"/>
      <point x="468" y="1429"/>
      <point x="498" y="1361"/>
      <point x="502" y="1268" type="curve"/>
      <point x="208" y="1239"/>
      <point x="80" y="1165"/>
      <point x="80" y="1017" type="curve" smooth="yes"/>
      <point x="80" y="897"/>
      <point x="162" y="819"/>
    </contour>
    <contour>
      <point x="322" y="918" type="curve" smooth="yes"/>
      <point x="249" y="918"/>
      <point x="202" y="952"/>
      <point x="202" y="1028" type="curve" smooth="yes"/>
      <point x="202" y="1108"/>
      <point x="278" y="1165"/>
      <point x="502" y="1190" type="curve"/>
      <point x="502" y="1006" type="line"/>
      <point x="439" y="945"/>
      <point x="379" y="918"/>
    </contour>
  </outline>
</glyph>
<glyph name="circumflexcmb.cap" format="2">
  <anchor x="0" y="1433" name="_aboveUC"/>
  <outline>
    <contour>
      <point x="-236" y="1477" type="line"/>
      <point x="-4" y="1676" type="line"/>
      <point x="4" y="1676" type="line"/>
      <point x="236" y="1477" type="line"/>
      <point x="308" y="1530" type="line"/>
      <point x="84" y="1769" type="line"/>
      <point x="-84" y="1769" type="line"/>
      <point x="-308" y="1530" type="line"/>
    </contour>
  </outline>
</glyph>
<glyph name="four.dnom" format="2">
  <advance width="774"/>
  <outline>
    <contour>
      <point x="464" y="0" type="line"/>
      <point x="580" y="0" type="line"/>
      <point x="580" y="823" type="line"/>
      <point x="439" y="823" type="line"/>
      <point x="90" y="287" type="line"/>
      <point x="90" y="221" type="line"/>
      <point x="702" y="221" type="line"/>
      <point x="702" y="314" type="line"/>
      <point x="223" y="314" type="line"/>
      <point x="358" y="525" type="line"/>
      <point x="466" y="696" type="line"/>
      <point x="474" y="696" type="line"/>
      <point x="464" y="468" type="line"/>
    </contour>
  </outline>
</glyph>
